<svg width="196" height="196" viewBox="0 0 196 196" fill="none" xmlns="http://www.w3.org/2000/svg">
<path d="M40.7326 48.4355C6.81284 71.0578 29.8311 120.066 66.6046 112.426C78.0432 110.05 83.6605 96.8671 96.4907 95.0208C109.568 93.1353 122.151 102.739 135.44 101.798C166.435 99.5993 175.224 62.3672 155.118 39.8272C132.535 14.504 65.0288 32.2342 40.7326 48.4355Z" fill="#3F51B5"/>
<path opacity="0.9" d="M40.7326 48.4355C6.81284 71.0578 29.8311 120.066 66.6046 112.426C78.0432 110.05 83.6605 96.8671 96.4907 95.0208C109.568 93.1353 122.151 102.739 135.44 101.798C166.435 99.5993 175.224 62.3672 155.118 39.8272C132.535 14.504 65.0288 32.2342 40.7326 48.4355Z" fill="white"/>
<path d="M98 167.604C139.976 167.604 174.005 165.617 174.005 163.166C174.005 160.715 139.976 158.729 98 158.729C56.0237 158.729 21.9951 160.715 21.9951 163.166C21.9951 165.617 56.0237 167.604 98 167.604Z" fill="#F5F5F5"/>
<path d="M122.065 44.5508C122.069 41.9681 121.353 39.4354 119.997 37.237C118.642 35.0387 116.7 33.2616 114.391 32.1051C112.082 30.9487 109.496 30.4588 106.923 30.6903C104.351 30.9218 101.894 31.8655 99.8283 33.4157C97.7625 34.9658 96.1696 37.061 95.2283 39.4661C94.287 41.8712 94.0346 44.491 94.4993 47.0315C94.9641 49.5721 96.1277 51.9329 97.8596 53.8489C99.5914 55.7649 101.823 57.1604 104.304 57.8788L108.169 61.7439L112.03 57.8788C114.92 57.0423 117.46 55.291 119.27 52.8877C121.079 50.4845 122.06 47.5591 122.065 44.5508V44.5508Z" fill="#3F51B5"/>
<path opacity="0.6" d="M108.835 35.2526H107.498V53.5825H108.835C111.265 53.5825 113.597 52.6169 115.315 50.8981C117.034 49.1794 118 46.8482 118 44.4175C118 41.9868 117.034 39.6557 115.315 37.9369C113.597 36.2182 111.265 35.2526 108.835 35.2526V35.2526Z" fill="#FAFAFA"/>
<path d="M113.98 50.8991C117.559 47.3199 117.559 41.517 113.98 37.9379C110.401 34.3587 104.598 34.3587 101.019 37.9378C97.4396 41.517 97.4396 47.3199 101.019 50.8991C104.598 54.4782 110.401 54.4782 113.98 50.8991Z" fill="#FAFAFA"/>
<path opacity="0.2" d="M112.708 39.592C111.363 38.3514 109.591 37.6769 107.762 37.7086C105.932 37.7403 104.185 38.4757 102.883 39.7621C101.582 41.0484 100.826 42.7868 100.773 44.616C100.72 46.4451 101.374 48.2244 102.598 49.5841C101.907 48.9281 101.354 48.1399 100.973 47.2661C100.592 46.3924 100.391 45.451 100.381 44.4979C100.371 43.5448 100.553 42.5994 100.916 41.718C101.279 40.8366 101.815 40.0371 102.493 39.3671C103.171 38.6971 103.977 38.1702 104.862 37.8177C105.748 37.4653 106.695 37.2945 107.648 37.3154C108.601 37.3364 109.54 37.5488 110.409 37.9398C111.279 38.3309 112.06 38.8928 112.708 39.592Z" fill="#3F51B5"/>
<g opacity="0.2">
<path d="M110.215 42.5045L108.463 42.7789C108.404 42.615 108.323 42.4595 108.224 42.3164C108.123 42.2079 108.004 42.1189 107.871 42.0537V43.4179C108.557 43.5529 109.208 43.8278 109.784 44.2254C109.991 44.4043 110.155 44.6268 110.266 44.877C110.376 45.1271 110.43 45.3986 110.423 45.6719C110.426 46.0012 110.347 46.3261 110.192 46.6166C110.048 46.8931 109.849 47.1372 109.607 47.334C109.383 47.5186 109.127 47.6595 108.851 47.7495C108.533 47.8442 108.203 47.8956 107.871 47.9024V48.1415C107.871 48.1866 107.863 48.2314 107.846 48.2732C107.829 48.315 107.804 48.3531 107.772 48.3852C107.741 48.4173 107.703 48.4427 107.661 48.4601C107.62 48.4775 107.575 48.4865 107.53 48.4865V48.4865C107.484 48.487 107.439 48.4784 107.397 48.4613C107.355 48.4441 107.317 48.4187 107.285 48.3866C107.253 48.3544 107.227 48.3162 107.21 48.2741C107.193 48.232 107.184 48.1869 107.185 48.1415V47.9024C106.801 47.8796 106.423 47.8044 106.06 47.6789C105.785 47.5775 105.532 47.4245 105.315 47.2281C105.119 47.0521 104.955 46.8423 104.833 46.6088C104.708 46.3553 104.622 46.0843 104.578 45.8052L106.483 45.5857C106.514 45.8231 106.591 46.0522 106.711 46.2599C106.835 46.4203 106.998 46.5459 107.185 46.6245V44.9624C106.723 44.846 106.27 44.6926 105.833 44.5037C105.528 44.3487 105.274 44.11 105.1 43.8155C104.927 43.5211 104.841 43.1832 104.853 42.8417C104.847 42.5805 104.895 42.321 104.996 42.0799C105.097 41.8389 105.247 41.6216 105.437 41.4422C105.925 41.03 106.546 40.8074 107.185 40.815V40.6935C107.184 40.648 107.193 40.603 107.21 40.5609C107.227 40.5188 107.253 40.4805 107.285 40.4484C107.317 40.4163 107.355 40.3909 107.397 40.3737C107.439 40.3566 107.484 40.348 107.53 40.3485V40.3485C107.575 40.3485 107.62 40.3575 107.661 40.3749C107.703 40.3922 107.741 40.4177 107.772 40.4498C107.804 40.4819 107.829 40.5199 107.846 40.5618C107.863 40.6036 107.871 40.6484 107.871 40.6935V40.815C108.447 40.8167 109.01 40.9915 109.486 41.3168C109.864 41.6119 110.123 42.0337 110.215 42.5045ZM107.185 42.0302C107.024 42.071 106.879 42.1566 106.765 42.2772C106.687 42.3748 106.645 42.4969 106.648 42.6221C106.645 42.7535 106.686 42.882 106.765 42.9867C106.879 43.1094 107.024 43.1978 107.185 43.2415V42.0302ZM107.871 46.6715C108.092 46.6361 108.298 46.5335 108.459 46.3775C108.578 46.2531 108.644 46.0872 108.643 45.9149C108.638 45.7699 108.583 45.6312 108.486 45.5229C108.313 45.3581 108.102 45.2395 107.871 45.178V46.6715Z" fill="#3F51B5"/>
</g>
<path d="M75.9153 56.9145C76.8953 52.6221 74.7628 50.2073 71.4935 48.8314C68.2243 47.4555 61.6308 48.0474 62.2306 53.8137C62.3174 54.8133 62.583 55.7892 63.0146 56.6949C61.4897 58.898 61.8386 62.2731 64.7903 62.9669C68.1263 63.7509 75.7271 62.7513 77.9929 61.493C76.5033 61.7753 75.1391 60.317 75.9153 56.9145Z" fill="#263238"/>
<path d="M78.091 61.152C77.6531 61.152 77.232 60.9836 76.915 60.6816C76.4524 60.2465 75.739 59.141 76.1662 56.5773C76.8013 52.7985 75.2176 50.3053 71.3172 48.9098C71.3057 48.9046 71.2965 48.8954 71.2914 48.8838C71.2863 48.8722 71.2857 48.8591 71.2898 48.8471C71.2915 48.8407 71.2946 48.8348 71.2988 48.8297C71.303 48.8245 71.3082 48.8204 71.3141 48.8174C71.32 48.8144 71.3265 48.8128 71.3331 48.8125C71.3397 48.8122 71.3463 48.8133 71.3525 48.8157C75.2999 50.2152 76.9071 52.7593 76.2642 56.593C75.8409 59.1097 76.5308 60.1916 76.9816 60.6071C77.1836 60.7998 77.4319 60.9371 77.7024 61.0057C77.973 61.0744 78.2567 61.0721 78.5261 60.9991C78.5391 60.9968 78.5524 60.9996 78.5634 61.0069C78.5743 61.0142 78.5821 61.0254 78.5849 61.0383C78.5866 61.0445 78.5871 61.051 78.5863 61.0573C78.5854 61.0637 78.5833 61.0698 78.58 61.0753C78.5767 61.0809 78.5723 61.0856 78.567 61.0894C78.5618 61.0931 78.5559 61.0957 78.5496 61.0971C78.3993 61.1328 78.2454 61.1512 78.091 61.152Z" fill="#263238"/>
<path d="M64.3153 62.72C63.7674 62.6609 63.2501 62.4382 62.8306 62.0809C62.4111 61.7236 62.1089 61.2483 61.9633 60.7169C61.7314 59.9985 61.7093 59.229 61.8996 58.4985C62.0898 57.768 62.4845 57.107 63.0373 56.593C63.042 56.5889 63.0474 56.5858 63.0532 56.5837C63.0591 56.5817 63.0653 56.5808 63.0715 56.5812C63.0777 56.5816 63.0837 56.5831 63.0893 56.5858C63.0949 56.5885 63.0999 56.5923 63.104 56.597C63.1081 56.6016 63.1113 56.607 63.1133 56.6128C63.1153 56.6187 63.1162 56.6249 63.1158 56.6311C63.1155 56.6373 63.1139 56.6433 63.1112 56.6489C63.1085 56.6545 63.1047 56.6595 63.1001 56.6636C62.5621 57.1657 62.1784 57.8106 61.9937 58.5229C61.8091 59.2352 61.8311 59.9853 62.0573 60.6855C62.1943 61.1985 62.4833 61.658 62.8863 62.0036C63.2893 62.3492 63.7874 62.5648 64.3153 62.622C64.3277 62.6247 64.3388 62.6317 64.3467 62.6417C64.3545 62.6517 64.3587 62.6641 64.3584 62.6769C64.3568 62.6878 64.3517 62.6978 64.344 62.7056C64.3362 62.7134 64.3261 62.7184 64.3153 62.72V62.72Z" fill="#263238"/>
<path d="M79.223 71.05C79.3092 71.9869 79.4229 73.01 79.564 73.9861C79.7051 74.9622 79.8462 75.9461 80.0422 76.9339C80.3993 78.8679 80.8985 80.773 81.5358 82.6336L81.7945 83.3078L81.9121 83.6175C81.9121 83.6175 81.9121 83.6175 81.8807 83.6175C81.8046 83.5423 81.705 83.4952 81.5985 83.4842C81.5397 83.4842 81.6181 83.5117 81.7435 83.4842C82.1054 83.3869 82.4523 83.2405 82.7745 83.0491C83.18 82.8199 83.5726 82.5687 83.9505 82.2965C84.7345 81.7359 85.5185 81.1205 86.2672 80.4501C87.0159 79.7798 87.7842 79.1017 88.5094 78.4196L89.8109 79.5211C88.5866 81.2741 87.1821 82.894 85.6204 84.3545C85.1944 84.7341 84.7468 85.0888 84.2798 85.4168C83.7475 85.8019 83.1609 86.1058 82.5393 86.3184C82.0936 86.4645 81.6218 86.514 81.1555 86.4634C80.5321 86.385 79.959 86.081 79.5444 85.6089C79.37 85.408 79.2224 85.1853 79.1054 84.9464C79.083 84.9073 79.0634 84.8667 79.0466 84.8249L79.0034 84.7308L78.9172 84.5426L78.5801 83.79C77.7635 81.7949 77.1348 79.7279 76.7024 77.616C76.475 76.5733 76.279 75.5266 76.1301 74.48C75.9811 73.4333 75.8557 72.3906 75.793 71.2734L79.223 71.05Z" fill="#FFC3BD"/>
<path d="M77.9219 67.1731C79.0979 67.4749 79.78 75.3267 79.78 75.3267L76.6204 77.224C76.6204 77.224 74.7114 71.4223 75.0054 68.9175C75.2171 67.1025 77.0281 66.9457 77.9219 67.1731Z" fill="#FFC3BD"/>
<path d="M88.4707 78.2001L90.2857 75.3306L91.3166 78.5921C91.3166 78.5921 89.827 80.1601 88.4785 79.7681L88.4707 78.2001Z" fill="#FFC3BD"/>
<path d="M92.9517 74.382L93.6652 77.1573L91.3171 78.592L90.2861 75.3306L92.9517 74.382Z" fill="#FFC3BD"/>
<path d="M71.1719 159.469H74.5352L75.966 147.118H71.3483L71.1719 159.469Z" fill="#FFC3BD"/>
<path d="M50.0508 154.93L53.3083 155.773L58.3102 144.436L53.8022 143.162L50.0508 154.93Z" fill="#FFC3BD"/>
<path d="M53.8256 155.232L50.3486 153.754C50.2891 153.728 50.2221 153.724 50.16 153.743C50.0979 153.763 50.045 153.804 50.0114 153.86L48.4434 156.443C48.406 156.51 48.3831 156.583 48.3762 156.659C48.3693 156.734 48.3786 156.811 48.4034 156.883C48.4283 156.955 48.4681 157.02 48.5203 157.076C48.5724 157.131 48.6358 157.175 48.7061 157.204C49.9252 157.698 50.5406 157.874 52.0694 158.525C53.0102 158.917 54.343 159.607 55.6406 160.159C56.9381 160.712 57.5575 159.458 57.0635 159.109C54.8605 157.541 54.7821 156.675 54.2568 155.644C54.166 155.46 54.0133 155.314 53.8256 155.232V155.232Z" fill="#263238"/>
<path d="M74.6523 159.078H70.8734C70.808 159.077 70.7445 159.1 70.6948 159.142C70.6451 159.185 70.6124 159.244 70.603 159.309L70.1678 162.288C70.1601 162.364 70.1684 162.44 70.1921 162.512C70.2158 162.584 70.2545 162.65 70.3055 162.707C70.3565 162.763 70.4188 162.808 70.4883 162.838C70.5578 162.869 70.6329 162.884 70.7088 162.884C72.0259 162.86 72.6688 162.786 74.323 162.786C75.3462 162.786 77.459 162.892 78.8702 162.892C80.2814 162.892 80.3559 161.496 79.7679 161.371C77.1337 160.802 76.0949 160.018 75.209 159.274C75.0513 159.147 74.8548 159.077 74.6523 159.078Z" fill="#263238"/>
<path d="M78.1333 67.1653C78.1333 67.1653 79.7366 67.7297 76.5261 87.463H62.8649C63.0962 81.9045 63.104 78.4784 60.4463 67.079C62.3576 66.6794 64.2952 66.4174 66.244 66.295C68.3098 66.1478 70.3835 66.1478 72.4493 66.295C75.111 66.5498 78.1333 67.1653 78.1333 67.1653Z" fill="#263238"/>
<path d="M66.8596 59.3214C67.2516 61.3166 67.6436 64.974 66.2441 66.3029C67.9887 68.1544 70.0205 69.7124 72.2613 70.9167C74.2017 67.7807 72.4495 66.3068 72.4495 66.3068C70.2229 65.7737 70.2817 64.1233 70.6659 62.571L66.8596 59.3214Z" fill="#FFC3BD"/>
<path opacity="0.2" d="M68.412 60.6463L70.666 62.571C70.5697 62.9318 70.5054 63.3004 70.4739 63.6725C69.6232 63.5471 68.4551 62.6141 68.3649 61.7125C68.3184 61.3571 68.3343 60.9963 68.412 60.6463V60.6463Z" fill="black"/>
<path d="M64.7552 55.664C65.5392 58.9098 65.8019 60.2974 67.754 61.689C70.6979 63.7823 74.5121 62.1085 74.712 58.6981C74.8963 55.6248 73.587 50.8346 70.1452 50.0976C69.3869 49.9316 68.5988 49.9622 67.8556 50.1864C67.1124 50.4106 66.4389 50.821 65.8989 51.3787C65.3589 51.9363 64.9704 52.6227 64.7703 53.3727C64.5701 54.1227 64.5649 54.9114 64.7552 55.664V55.664Z" fill="#FFC3BD"/>
<path d="M76.5263 87.463C76.5263 87.463 79.1801 113.37 78.9567 123.625C78.7293 134.295 76.6047 147.486 76.6047 147.486H70.7404C70.7404 147.486 70.9913 134.919 70.5914 124.44C70.1524 113.021 66.5225 87.463 66.5225 87.463H76.5263Z" fill="#3F51B5"/>
<path d="M70.2384 148.074H76.8514L77.3375 146.369L69.9326 146.161L70.2384 148.074Z" fill="#263238"/>
<path opacity="0.2" d="M70.6344 93.9115C73.9899 100.658 71.3086 112.97 70.1208 117.549C69.5132 110.669 68.4862 102.261 67.6865 96.087C68.2079 92.5943 69.086 90.799 70.6344 93.9115Z" fill="black"/>
<path d="M72.9121 87.463C72.9121 87.463 69.8153 114.397 67.479 123.045C64.7075 133.311 59.0353 144.644 59.0353 144.644L53.1553 142.986C53.1553 142.986 56.452 129.148 58.5727 123.739C63.1003 112.198 59.2273 94.9973 62.8416 87.463H72.9121Z" fill="#3F51B5"/>
<path d="M52.8145 143.88L58.914 145.569L60.0116 144.009L53.2496 141.755L52.8145 143.88Z" fill="#263238"/>
<path d="M70.2353 55.7267C70.2863 55.9932 70.4627 56.1853 70.6273 56.154C70.7919 56.1226 70.9056 55.8796 70.8586 55.613C70.8115 55.3464 70.6312 55.1544 70.4666 55.1857C70.3019 55.2171 70.1883 55.4601 70.2353 55.7267Z" fill="#263238"/>
<path d="M73.2568 55.1897C73.3038 55.4602 73.4842 55.6483 73.6488 55.6209C73.8134 55.5934 73.9271 55.3465 73.8801 55.0799C73.833 54.8134 73.6527 54.6213 73.4881 54.6526C73.3234 54.684 73.2098 54.9231 73.2568 55.1897Z" fill="#263238"/>
<path d="M73.4102 54.6801L74.0217 54.3821C74.0217 54.3821 73.7786 54.9427 73.4102 54.6801Z" fill="#263238"/>
<path d="M72.3984 55.762C72.7447 56.3289 73.1667 56.8459 73.6528 57.2986C73.5347 57.42 73.3912 57.5138 73.2327 57.5734C73.0741 57.6331 72.9044 57.657 72.7356 57.6436L72.3984 55.762Z" fill="#ED847E"/>
<path d="M71.3212 58.9058C71.4737 58.9043 71.6258 58.8899 71.7759 58.8627C71.7863 58.8613 71.7962 58.8578 71.8052 58.8524C71.8142 58.8471 71.822 58.84 71.8282 58.8316C71.8344 58.8232 71.8389 58.8137 71.8413 58.8035C71.8438 58.7934 71.8442 58.7828 71.8426 58.7725C71.8387 58.7513 71.8267 58.7325 71.8091 58.72C71.7915 58.7075 71.7698 58.7025 71.7485 58.7059C71.4178 58.7728 71.0759 58.7605 70.7509 58.6698C70.4259 58.5792 70.127 58.4129 69.8786 58.1845C69.8629 58.1707 69.8427 58.1631 69.8218 58.1631C69.8009 58.1631 69.7807 58.1707 69.765 58.1845C69.7503 58.1998 69.7422 58.2202 69.7422 58.2414C69.7422 58.2625 69.7503 58.2829 69.765 58.2982C70.1852 58.6951 70.7433 58.9129 71.3212 58.9058V58.9058Z" fill="#263238"/>
<path d="M68.6632 49.4626C70.7525 50.0074 71.9521 50.2975 72.6302 50.9012C74.5902 52.6417 67.3343 52.8612 67.5538 53.1474C68.6201 57.1066 65.9623 60.0897 64.4178 56.8008C62.8733 53.5119 61.7797 51.9243 64.2885 50.568C66.7973 49.2117 68.6632 49.4626 68.6632 49.4626Z" fill="#263238"/>
<path d="M64.6173 58.1061C64.7404 58.4011 64.9204 58.669 65.147 58.8943C65.3737 59.1197 65.6426 59.2981 65.9384 59.4193C66.7224 59.7408 67.2202 59.0509 67.0791 58.2433C66.9536 57.526 66.3852 56.495 65.5503 56.5146C65.3665 56.5214 65.1874 56.5745 65.0296 56.6688C64.8717 56.7632 64.7402 56.8958 64.6472 57.0545C64.5542 57.2131 64.5027 57.3926 64.4975 57.5765C64.4923 57.7603 64.5335 57.9425 64.6173 58.1061V58.1061Z" fill="#FFC3BD"/>
<path d="M69.0667 53.9392C69.0888 53.9397 69.1108 53.9354 69.1311 53.9266C69.1514 53.9178 69.1696 53.9047 69.1843 53.8882C69.3169 53.7392 69.4833 53.6241 69.6694 53.5525C69.8556 53.4809 70.0562 53.4549 70.2545 53.4766C70.2965 53.4835 70.3395 53.474 70.3746 53.4498C70.4097 53.4257 70.4341 53.3889 70.4426 53.3472C70.4495 53.3057 70.4398 53.2631 70.4156 53.2287C70.3914 53.1942 70.3547 53.1706 70.3133 53.163C70.0622 53.1319 69.8074 53.162 69.5706 53.2508C69.3337 53.3395 69.1218 53.4842 68.953 53.6726C68.9382 53.6872 68.9264 53.7046 68.9184 53.7238C68.9104 53.7429 68.9062 53.7635 68.9062 53.7843C68.9063 53.8051 68.9104 53.8257 68.9184 53.8449C68.9264 53.8641 68.9382 53.8814 68.953 53.896C68.9842 53.9241 69.0248 53.9394 69.0667 53.9392V53.9392Z" fill="#263238"/>
<path d="M74.0097 53.5315C74.0408 53.5308 74.0709 53.5211 74.0965 53.5036C74.1222 53.4862 74.1422 53.4617 74.1542 53.4331C74.1662 53.4045 74.1697 53.373 74.1643 53.3425C74.1588 53.312 74.1446 53.2837 74.1234 53.261C73.9538 53.0728 73.7411 52.9284 73.5035 52.8404C73.266 52.7523 73.0106 52.7231 72.7593 52.7553C72.7178 52.7638 72.6813 52.7884 72.6579 52.8236C72.6344 52.8588 72.6257 52.9019 72.6338 52.9435C72.6376 52.9639 72.6454 52.9833 72.6567 53.0007C72.668 53.018 72.6826 53.033 72.6998 53.0446C72.7169 53.0563 72.7362 53.0645 72.7565 53.0686C72.7768 53.0728 72.7977 53.0729 72.8181 53.0689C73.0174 53.0482 73.2189 53.0746 73.4062 53.1461C73.5934 53.2176 73.7613 53.3322 73.8961 53.4805C73.9107 53.4962 73.9282 53.5087 73.9478 53.5175C73.9673 53.5262 73.9884 53.531 74.0097 53.5315V53.5315Z" fill="#263238"/>
<path d="M62.1518 71.9634C61.4737 73.7352 60.8229 75.5972 60.2506 77.4278C59.6723 79.2332 59.2243 81.0777 58.91 82.9472C58.8669 83.1785 58.8473 83.398 58.8237 83.6214L58.7885 83.9546V84.0997C58.8275 84.36 58.9225 84.6087 59.0668 84.8288C59.5318 85.5852 60.0715 86.2931 60.6779 86.9417C61.9362 88.345 63.3866 89.6857 64.8174 91.0106L63.8296 92.3944C62.0452 91.3653 60.3614 90.171 58.8002 88.8272C57.9566 88.1161 57.2024 87.3053 56.5541 86.4125C56.1116 85.8226 55.8196 85.1337 55.7034 84.4054C55.6926 84.275 55.6926 84.1439 55.7034 84.0134C55.7034 83.9311 55.7034 83.9272 55.7034 83.8841V83.7821V83.3901C55.7034 83.1157 55.7309 82.8453 55.7622 82.5826C55.9817 80.5111 56.3911 78.4641 56.9853 76.4674C57.5366 74.4968 58.2015 72.5597 58.9766 70.6658L62.1518 71.9634Z" fill="#FFC3BD"/>
<path d="M60.4588 67.0673C59.1221 67.6161 57.4443 74.9504 57.4443 74.9504L60.2942 77.3024C60.2942 77.3024 62.9755 71.834 63.0931 69.3134C63.1832 67.424 61.6466 66.5851 60.4588 67.0673Z" fill="#FFC3BD"/>
<path d="M55.3585 156.29C55.4207 156.26 55.475 156.215 55.5172 156.16C55.5593 156.105 55.5882 156.041 55.6016 155.973C55.6167 155.927 55.6192 155.878 55.6089 155.831C55.5985 155.785 55.5757 155.741 55.5428 155.706C55.2527 155.389 54.0532 155.597 53.9199 155.62C53.9042 155.624 53.8897 155.631 53.878 155.642C53.8663 155.653 53.8578 155.667 53.8533 155.683C53.8514 155.698 53.8532 155.713 53.8587 155.728C53.8642 155.742 53.8731 155.755 53.8846 155.765C54.2453 156.028 54.9117 156.451 55.3154 156.31L55.3585 156.29ZM54.1355 155.749C54.6177 155.679 55.2723 155.647 55.4252 155.812C55.4396 155.828 55.4494 155.848 55.4536 155.87C55.4577 155.891 55.456 155.913 55.4487 155.934C55.4394 155.984 55.4172 156.032 55.3843 156.072C55.3513 156.112 55.3087 156.142 55.2605 156.161C55.0449 156.239 54.6294 156.083 54.1355 155.749Z" fill="#3F51B5"/>
<path d="M54.4882 155.6C54.8371 155.432 55.1938 155.169 55.2448 154.93C55.258 154.868 55.2493 154.803 55.22 154.746C55.1906 154.69 55.1426 154.645 55.084 154.62C55.0312 154.59 54.9723 154.571 54.9115 154.564C54.8506 154.558 54.7891 154.565 54.7312 154.585C54.2726 154.742 53.8884 155.632 53.8728 155.667C53.8659 155.68 53.8623 155.694 53.8623 155.708C53.8623 155.723 53.8659 155.737 53.8728 155.749C53.8821 155.76 53.8936 155.768 53.9065 155.774C53.9193 155.779 53.9333 155.781 53.9472 155.781C54.1356 155.748 54.318 155.688 54.4882 155.6V155.6ZM54.7352 154.758L54.7822 154.738C54.8186 154.725 54.8575 154.719 54.8961 154.723C54.9348 154.726 54.9722 154.738 55.0056 154.758C55.0958 154.809 55.0958 154.86 55.088 154.899C55.0409 155.13 54.4764 155.479 54.0844 155.589C54.22 155.26 54.4406 154.973 54.7234 154.758H54.7352Z" fill="#3F51B5"/>
<path d="M75.9154 159.665C76.2024 159.691 76.4897 159.62 76.7308 159.462C76.7846 159.413 76.8257 159.352 76.8503 159.283C76.8749 159.215 76.8823 159.142 76.8719 159.07C76.8701 159.026 76.8569 158.983 76.8335 158.946C76.8101 158.909 76.7774 158.879 76.7386 158.858C76.3466 158.631 74.9864 159.317 74.8335 159.395C74.8192 159.403 74.8075 159.415 74.7999 159.43C74.7922 159.444 74.7889 159.461 74.7904 159.477C74.7942 159.494 74.8025 159.508 74.8143 159.52C74.826 159.532 74.8408 159.54 74.857 159.544C75.2054 159.617 75.5596 159.657 75.9154 159.665ZM76.5152 158.972C76.565 158.969 76.6148 158.978 76.6602 158.999C76.6761 159.007 76.6896 159.02 76.6992 159.035C76.7089 159.05 76.7143 159.067 76.7151 159.085C76.7222 159.132 76.7177 159.18 76.702 159.224C76.6863 159.269 76.6598 159.308 76.6249 159.34C76.4172 159.524 75.8644 159.556 75.1196 159.434C75.5547 159.201 76.0268 159.044 76.5152 158.972V158.972Z" fill="#3F51B5"/>
<path d="M74.8724 159.544C74.8826 159.547 74.8936 159.547 74.9038 159.544C75.2958 159.364 76.0798 158.638 76.0367 158.258C76.0367 158.168 75.9583 158.054 75.7348 158.035C75.6561 158.026 75.5763 158.033 75.5007 158.057C75.425 158.08 75.3552 158.12 75.2958 158.172C74.8724 158.525 74.794 159.426 74.7901 159.466C74.7896 159.479 74.7926 159.493 74.7987 159.505C74.8049 159.518 74.8141 159.528 74.8254 159.536C74.8394 159.545 74.8563 159.548 74.8724 159.544V159.544ZM75.6564 158.18H75.7035C75.8485 158.18 75.8603 158.254 75.8642 158.27C75.8995 158.501 75.3624 159.054 74.9547 159.317C74.9859 158.936 75.1352 158.574 75.382 158.282C75.4575 158.215 75.5558 158.18 75.6564 158.184V158.18Z" fill="#3F51B5"/>
<path d="M62.6613 86.6633L62.3281 87.8864C62.2811 87.9805 62.3948 88.0785 62.5516 88.0785H76.6087C76.7302 88.0785 76.8321 88.0157 76.84 87.9373L76.9654 86.7182C76.9654 86.632 76.8674 86.5614 76.7302 86.5614H62.8847C62.8419 86.5574 62.7987 86.5648 62.7595 86.5826C62.7203 86.6005 62.6864 86.6283 62.6613 86.6633V86.6633Z" fill="#3F51B5"/>
<path opacity="0.8" d="M62.6613 86.6633L62.3281 87.8864C62.2811 87.9805 62.3948 88.0785 62.5516 88.0785H76.6087C76.7302 88.0785 76.8321 88.0157 76.84 87.9373L76.9654 86.7182C76.9654 86.632 76.8674 86.5614 76.7302 86.5614H62.8847C62.8419 86.5574 62.7987 86.5648 62.7595 86.5826C62.7203 86.6005 62.6864 86.6283 62.6613 86.6633V86.6633Z" fill="white"/>
<path d="M64.5195 88.2H64.151C64.0765 88.2 64.0217 88.1647 64.0256 88.1177L64.1981 86.5301C64.1981 86.483 64.2686 86.4438 64.3431 86.4438H64.7116C64.7861 86.4438 64.8409 86.483 64.837 86.5301L64.6646 88.1177C64.6567 88.1726 64.594 88.2 64.5195 88.2Z" fill="#3F51B5"/>
<path d="M75.5508 88.2H75.1823C75.1078 88.2 75.0529 88.1647 75.0568 88.1177L75.2293 86.5301C75.2293 86.483 75.2999 86.4438 75.3744 86.4438H75.7468C75.8173 86.4438 75.8761 86.483 75.8683 86.5301L75.6958 88.1177C75.6919 88.1726 75.6252 88.2 75.5508 88.2Z" fill="#3F51B5"/>
<path d="M70.0351 88.2H69.6667C69.5922 88.2 69.5373 88.1647 69.5412 88.1177L69.7137 86.5301C69.7137 86.483 69.7843 86.4438 69.8587 86.4438H70.2272C70.3017 86.4438 70.3605 86.483 70.3527 86.5301L70.1802 88.1177C70.1684 88.1726 70.1096 88.2 70.0351 88.2Z" fill="#3F51B5"/>
<path d="M63.6136 110.854L80.2932 111.128L77.5061 87.463L78.2901 76.8281L76.3967 74.919C76.5927 68.255 75.6127 66.6243 75.6127 66.6243L74.2721 66.4126C75.4481 68.1414 75.2521 72.9277 75.0561 74.5623C72.2886 74.0723 68.3411 74.5623 68.3411 74.5623C68.1373 69.725 65.1111 66.1931 65.1111 66.1931L63.9351 66.393C66.6163 69.4663 67.1534 74.8994 67.1534 74.8994L64.2878 77.4906L64.6798 80.0033C64.0288 80.1731 63.3503 80.2104 62.6846 80.113L62.763 81.2146C63.4583 81.3688 64.1843 81.303 64.8406 81.0264L65.8088 87.318L63.6136 110.854Z" fill="white"/>
<path d="M64.422 90.7088L68.0441 91.0185L65.6254 93.4332C65.6254 93.4332 63.5518 92.8334 63.2734 91.4732L64.422 90.7088Z" fill="#FFC3BD"/>
<path d="M70.1132 92.9432L67.9768 94.86L65.1113 93.245L68.0435 91.0184L70.1132 92.9432Z" fill="#FFC3BD"/>
<path d="M70.3916 55.2132L71.0031 54.9153C71.0031 54.9153 70.7601 55.4758 70.3916 55.2132Z" fill="#263238"/>
<path d="M44.751 93.2176H108.278C109.034 93.2176 109.759 93.5178 110.294 94.0523C110.828 94.5867 111.128 95.3116 111.128 96.0674V163.182H44.751V93.2176Z" fill="#3F51B5"/>
<path opacity="0.3" d="M60.282 93.2176H44.751V163.182H60.282V93.2176Z" fill="black"/>
<path opacity="0.3" d="M111.128 95.3696H44.751V97.5217H111.128V95.3696Z" fill="black"/>
<path d="M109.439 93.2176H44.7588V96.1262H112.347C112.347 95.3548 112.041 94.615 111.496 94.0695C110.95 93.524 110.21 93.2176 109.439 93.2176V93.2176Z" fill="#263238"/>
<path d="M92.1787 83.496H82.4023C81.1258 83.496 79.8618 83.7475 78.6825 84.2361C77.5033 84.7247 76.4319 85.4408 75.5294 86.3436C74.627 87.2464 73.9113 88.3181 73.4232 89.4976C72.935 90.677 72.6841 91.9411 72.6846 93.2176H92.1787V83.496Z" fill="#3F51B5"/>
<path opacity="0.5" d="M92.1787 83.496H82.4023C81.1258 83.496 79.8618 83.7475 78.6825 84.2361C77.5033 84.7247 76.4319 85.4408 75.5294 86.3436C74.627 87.2464 73.9113 88.3181 73.4232 89.4976C72.935 90.677 72.6841 91.9411 72.6846 93.2176H92.1787V83.496Z" fill="white"/>
<path d="M92.1787 83.496H103.178C103.276 83.496 103.37 83.5348 103.439 83.6039C103.508 83.673 103.547 83.7667 103.547 83.8645V93.2176H92.1787V83.496V83.496Z" fill="#3F51B5"/>
<path opacity="0.7" d="M92.1787 83.496H103.178C103.276 83.496 103.37 83.5348 103.439 83.6039C103.508 83.673 103.547 83.7667 103.547 83.8645V93.2176H92.1787V83.496V83.496Z" fill="white"/>
<path d="M89.2741 82.1906H101.426C101.768 82.1978 102.093 82.3385 102.331 82.5825C102.57 82.8265 102.704 83.1545 102.704 83.496H87.9688C87.9688 83.1498 88.1063 82.8177 88.3511 82.5729C88.5959 82.3281 88.9279 82.1906 89.2741 82.1906Z" fill="#3F51B5"/>
<path opacity="0.3" d="M89.2741 82.1906C88.9279 82.1906 88.5959 82.3282 88.3511 82.573C88.1063 82.8178 87.9688 83.1498 87.9688 83.496H91.9671C91.9671 83.3242 92.001 83.1542 92.0669 82.9955C92.1327 82.8369 92.2292 82.6928 92.3509 82.5716C92.4725 82.4503 92.6169 82.3542 92.7757 82.2889C92.9345 82.2235 93.1047 82.1901 93.2764 82.1906H89.2741Z" fill="black"/>
<path d="M105.668 74.3558L109.76 79.5909C109.918 79.7939 110.211 79.8298 110.414 79.6712L112.975 77.67C113.178 77.5114 113.214 77.2182 113.055 77.0152L108.964 71.7801C108.805 71.5771 108.512 71.5412 108.309 71.6998L105.748 73.701C105.545 73.8596 105.509 74.1528 105.668 74.3558Z" fill="#3F51B5"/>
<path d="M107.09 72.6539L111.756 78.6241L112.614 77.9531L107.948 71.9828L107.09 72.6539Z" fill="#263238"/>
<path d="M106.337 74.206L107.812 76.0931L108.67 75.4221L107.195 73.5349L106.337 74.206Z" fill="white"/>
<path d="M149.274 69.235C149.372 69.3839 149.423 69.4623 149.485 69.5682L149.662 69.8583C149.776 70.0543 149.874 70.2503 149.975 70.4423C150.171 70.8343 150.367 71.2263 150.524 71.6183C150.853 72.3969 151.136 73.194 151.371 74.0056C151.846 75.6085 152.158 77.2555 152.3 78.9213L152.331 79.231C152.336 79.2936 152.336 79.3565 152.331 79.4192V79.6269C152.336 79.8995 152.32 80.172 152.284 80.4423C152.211 80.9432 152.079 81.434 151.892 81.9044C151.55 82.747 151.094 83.5385 150.536 84.2564C149.501 85.5857 148.271 86.7501 146.887 87.7099L145.824 86.4281C146.809 85.3162 147.681 84.1095 148.427 82.8256C148.763 82.2432 149.026 81.6218 149.211 80.9754C149.286 80.7016 149.329 80.4201 149.34 80.1365C149.353 80.0153 149.353 79.8932 149.34 79.7719V79.6896C149.344 79.6531 149.344 79.6163 149.34 79.5799L149.293 79.3055C149.041 77.8445 148.685 76.4035 148.227 74.9935C148 74.2918 147.722 73.6136 147.443 72.9511C147.302 72.6179 147.149 72.2926 146.992 71.979L146.745 71.5164L146.628 71.3008L146.526 71.1283L149.274 69.235Z" fill="#FF8B7B"/>
<path d="M145.612 87.7178L147.035 90.7166L148.176 88.2C148.176 88.2 147.176 86.0048 145.824 86.2086L145.612 87.7178Z" fill="#FF8B7B"/>
<path d="M149.285 90.7166L150.414 88.8664L148.16 88.1804L147.035 90.7166H149.285Z" fill="#FF8B7B"/>
<path d="M141.669 160.022C141.961 160.015 142.252 159.976 142.535 159.905C142.55 159.901 142.564 159.894 142.574 159.883C142.585 159.872 142.592 159.858 142.595 159.843C142.598 159.828 142.596 159.813 142.591 159.798C142.585 159.784 142.575 159.772 142.563 159.763C142.449 159.689 141.453 159.046 141.069 159.219C141.026 159.238 140.989 159.268 140.962 159.307C140.935 159.346 140.919 159.391 140.916 159.438C140.903 159.509 140.908 159.582 140.931 159.651C140.953 159.719 140.993 159.781 141.046 159.83C141.223 159.968 141.445 160.036 141.669 160.022V160.022ZM142.316 159.791C141.743 159.909 141.316 159.889 141.14 159.736C141.104 159.7 141.079 159.656 141.065 159.607C141.051 159.558 141.05 159.507 141.061 159.458C141.061 159.437 141.068 159.416 141.08 159.399C141.091 159.381 141.108 159.368 141.128 159.36C141.336 159.266 141.904 159.544 142.316 159.791V159.791Z" fill="#3F51B5"/>
<path d="M142.519 159.905H142.558C142.57 159.897 142.58 159.887 142.587 159.874C142.594 159.862 142.597 159.848 142.598 159.834C142.598 159.795 142.598 158.85 142.233 158.533C142.19 158.492 142.138 158.462 142.082 158.444C142.026 158.427 141.966 158.422 141.908 158.431C141.846 158.43 141.786 158.452 141.738 158.491C141.69 158.531 141.657 158.585 141.645 158.646C141.571 159.019 142.166 159.724 142.48 159.905H142.519ZM141.959 158.576C141.99 158.575 142.022 158.58 142.052 158.592C142.081 158.603 142.108 158.62 142.131 158.642C142.338 158.947 142.445 159.309 142.437 159.677C142.123 159.426 141.751 158.893 141.798 158.67C141.798 158.635 141.825 158.588 141.923 158.576H141.959Z" fill="#3F51B5"/>
<path d="M121.23 158.572C121.243 158.572 121.257 158.568 121.269 158.562C121.28 158.555 121.29 158.545 121.296 158.533C121.306 158.519 121.311 158.504 121.311 158.488C121.311 158.471 121.306 158.456 121.296 158.442C121.194 158.317 120.281 157.243 119.811 157.243H119.783C119.74 157.247 119.699 157.263 119.663 157.287C119.628 157.312 119.599 157.345 119.579 157.384C119.55 157.445 119.534 157.512 119.534 157.58C119.534 157.648 119.55 157.715 119.579 157.776C119.787 158.207 120.708 158.45 121.238 158.56L121.23 158.572ZM119.807 157.396C120.066 157.396 120.63 157.929 121.018 158.364C120.301 158.195 119.815 157.972 119.697 157.717C119.676 157.677 119.665 157.632 119.665 157.586C119.665 157.54 119.676 157.495 119.697 157.455C119.704 157.438 119.716 157.424 119.73 157.414C119.745 157.403 119.762 157.397 119.779 157.396H119.807Z" fill="#3F51B5"/>
<path d="M121.23 158.572C121.244 158.569 121.256 158.563 121.266 158.554C121.277 158.545 121.285 158.534 121.289 158.521C121.289 158.486 121.567 157.639 121.32 157.165C121.286 157.095 121.237 157.034 121.178 156.984C121.118 156.934 121.05 156.897 120.975 156.874C120.768 156.812 120.666 156.874 120.619 156.965C120.423 157.286 120.866 158.235 121.16 158.533C121.166 158.545 121.177 158.556 121.189 158.563C121.202 158.57 121.216 158.573 121.23 158.572V158.572ZM120.838 157.004C120.869 156.999 120.901 156.999 120.932 157.004C120.987 157.02 121.038 157.046 121.082 157.083C121.126 157.119 121.162 157.164 121.187 157.215C121.301 157.572 121.301 157.956 121.187 158.313C120.913 157.921 120.642 157.219 120.76 157.027C120.771 157.015 120.785 157.006 120.801 157.002C120.817 156.997 120.834 156.998 120.85 157.004H120.838Z" fill="#3F51B5"/>
<path d="M142.296 57.7534C141.904 59.7134 141.053 63.9509 142.417 65.2523C142.417 65.2523 141.884 67.2123 138.266 67.2123C134.283 67.2123 136.361 65.2523 136.361 65.2523C138.537 64.7349 138.478 63.1198 138.101 61.6067L142.296 57.7534Z" fill="#FF8B7B"/>
<path d="M135.632 53.1591C135.655 53.1628 135.679 53.1628 135.702 53.1591C135.721 53.1499 135.738 53.1372 135.751 53.1215C135.765 53.1059 135.775 53.0877 135.782 53.068C135.789 53.0483 135.791 53.0275 135.79 53.0068C135.788 52.9861 135.782 52.9659 135.773 52.9474C135.666 52.725 135.508 52.5309 135.312 52.381C135.116 52.2312 134.887 52.1298 134.644 52.085C134.603 52.0816 134.563 52.0939 134.531 52.1194C134.499 52.1449 134.477 52.1817 134.472 52.2222C134.467 52.2633 134.479 52.3044 134.505 52.3366C134.53 52.3689 134.568 52.3898 134.609 52.3947V52.3947C134.801 52.4322 134.981 52.5146 135.135 52.6352C135.289 52.7558 135.412 52.9112 135.495 53.0886C135.509 53.1114 135.53 53.13 135.554 53.1424C135.578 53.1548 135.605 53.1606 135.632 53.1591V53.1591Z" fill="#263238"/>
<path d="M134.456 54.8799C134.148 55.4522 133.763 55.9797 133.312 56.4479C133.434 56.5597 133.579 56.6435 133.736 56.6935C133.894 56.7436 134.061 56.7588 134.225 56.738L134.456 54.8799Z" fill="#FF5652"/>
<path d="M134.754 54.437C134.718 54.6996 134.554 54.8956 134.381 54.876C134.209 54.8564 134.099 54.6251 134.13 54.3625C134.162 54.0999 134.33 53.9039 134.499 53.9235C134.667 53.9431 134.785 54.1743 134.754 54.437Z" fill="#263238"/>
<path d="M134.573 53.947L133.966 53.6883C133.966 53.6883 134.228 54.2214 134.573 53.947Z" fill="#263238"/>
<path d="M124.708 159.803L121.509 159.066L123.01 151.606L126.209 152.347L124.708 159.803Z" fill="#FF8B7B"/>
<path d="M146.338 159.826H143.053L143.311 152.225H146.596L146.338 159.826Z" fill="#FF8B7B"/>
<path d="M142.794 159.446H146.483C146.547 159.445 146.609 159.468 146.657 159.51C146.705 159.552 146.737 159.61 146.745 159.673L147.165 162.59C147.173 162.664 147.166 162.738 147.143 162.809C147.12 162.88 147.083 162.945 147.033 163C146.984 163.055 146.923 163.099 146.855 163.129C146.787 163.159 146.714 163.174 146.64 163.174C145.354 163.154 144.734 163.076 143.112 163.076C142.112 163.076 140.654 163.182 139.278 163.182C137.902 163.182 137.823 161.818 138.4 161.696C140.971 161.139 141.379 160.379 142.245 159.65C142.398 159.519 142.593 159.447 142.794 159.446Z" fill="#263238"/>
<path d="M121.575 158.223L124.981 159.638C125.04 159.661 125.089 159.705 125.118 159.761C125.147 159.818 125.154 159.882 125.138 159.944L124.405 162.801C124.384 162.873 124.349 162.939 124.301 162.995C124.253 163.052 124.193 163.098 124.126 163.129C124.059 163.161 123.986 163.179 123.912 163.18C123.838 163.182 123.764 163.168 123.696 163.139C122.52 162.625 121.975 162.319 120.477 161.696C119.552 161.304 117.608 160.618 116.334 160.089C115.06 159.56 115.515 158.274 116.095 158.38C118.682 158.858 119.909 158.54 120.991 158.199C121.182 158.138 121.389 158.147 121.575 158.223Z" fill="#263238"/>
<path opacity="0.2" d="M123.01 151.61L122.206 155.604L125.436 156.192L126.208 152.347L123.01 151.61Z" fill="black"/>
<path opacity="0.2" d="M146.596 152.225H143.311L143.178 156.145H146.463L146.596 152.225Z" fill="black"/>
<path d="M148.071 65.9971C149.435 66.299 150.889 71.2029 150.889 71.2029L147.036 75.3071C147.036 75.3071 143.833 70.6972 144.488 68.9998C145.166 67.2358 146.459 65.6443 148.071 65.9971Z" fill="#3F51B5"/>
<path opacity="0.4" d="M145.907 69.1213C145.217 68.4902 144.75 68.6784 144.433 69.1801C144.119 70.6384 145.977 73.6921 146.726 74.8485C147.071 73.4686 147.467 70.56 145.907 69.1213Z" fill="black"/>
<path d="M130.803 66.0951C130.803 66.0951 129.235 66.6439 132.371 85.9107H145.699C145.476 80.4854 145.468 77.1378 148.051 65.9971C146.184 65.6118 144.29 65.3629 142.387 65.2523C140.371 65.1071 138.347 65.1071 136.33 65.2523C133.751 65.4914 130.803 66.0951 130.803 66.0951Z" fill="#3F51B5"/>
<path d="M134.57 64.8446C135.095 64.5741 139.239 63.7431 142.328 63.8725C144.092 63.9469 145.103 64.1743 145.856 64.6094C146.609 65.0445 145.593 67.3926 145.033 67.6905C145.37 68.5686 144.162 69.7329 143.465 70.2895C143.253 71.1323 140.329 71.9829 138.388 70.2464C136.899 68.9136 133.069 65.6129 134.57 64.8446Z" fill="#263238"/>
<path opacity="0.4" d="M130.681 73.4882C130.767 74.4251 130.881 75.4796 131.03 76.6713C132.123 75.6874 133.017 72.8885 132.688 71.2578C131.906 71.8919 131.229 72.6445 130.681 73.4882V73.4882Z" fill="black"/>
<path d="M132.104 70.56C131.374 72.4016 130.549 74.2046 129.634 75.9618C129.183 76.8477 128.701 77.7218 128.176 78.5842C127.647 79.4754 127.058 80.3293 126.412 81.1401L126.157 81.4537L126.095 81.5321L125.985 81.6497C125.913 81.729 125.835 81.8037 125.753 81.8731C125.435 82.158 125.065 82.3801 124.664 82.5278C123.987 82.7562 123.265 82.8207 122.559 82.7159C121.453 82.5367 120.386 82.1751 119.399 81.6458C117.616 80.692 115.958 79.52 114.464 78.157L115.475 76.8359C116.259 77.3063 117.11 77.7767 117.941 78.1961C118.753 78.6252 119.593 79.001 120.454 79.3212C121.216 79.6312 122.021 79.8255 122.841 79.8974C123.098 79.9183 123.356 79.8766 123.594 79.7759C123.646 79.7508 123.692 79.7131 123.727 79.6661L123.997 79.2741C125.002 77.743 125.895 76.1407 126.667 74.48C127.478 72.7866 128.254 71.0265 128.991 69.3095L132.104 70.56Z" fill="#FF8B7B"/>
<path d="M130.803 66.0951C129.168 66.4871 127.161 70.9716 127.161 70.9716L130.548 75.95C130.548 75.95 135.056 70.2699 134.523 68.5373C133.962 66.7302 132.782 65.609 130.803 66.0951Z" fill="#3F51B5"/>
<path d="M115.19 78.4196L112.077 78.4548L112.967 75.7736C112.967 75.7736 115.405 76.1068 116.177 77.2318L115.19 78.4196Z" fill="#FF8B7B"/>
<path d="M109.756 78.1099L110.352 75.7736H112.966L112.077 78.4548L109.756 78.1099Z" fill="#FF8B7B"/>
<path d="M143.703 54.6291C143.103 57.8318 142.919 59.2038 141.085 60.6581C138.341 62.8454 134.519 61.4107 134.146 58.0944C133.813 55.1074 134.848 50.372 138.164 49.4704C138.896 49.2689 139.667 49.2581 140.404 49.4389C141.141 49.6196 141.819 49.986 142.374 50.5032C142.929 51.0203 143.343 51.671 143.576 52.3932C143.808 53.1154 143.852 53.8851 143.703 54.6291V54.6291Z" fill="#FF8B7B"/>
<path d="M136.761 54.5546C136.13 55.3582 131.665 60.4973 134.229 62.4926C142.214 61.8693 144.491 64.6369 146.706 60.6933C148.921 56.7498 149.262 49.9565 143.1 48.804C136.937 47.6515 133.558 49.0862 136.761 54.5546Z" fill="#263238"/>
<path d="M135.534 54.4096C135.103 54.8675 134.867 55.4746 134.875 56.103C134.895 56.938 135.679 57.0987 136.326 56.6557C136.91 56.2637 137.6 55.3465 137.27 54.6095C137.195 54.4517 137.081 54.3156 136.939 54.214C136.797 54.1123 136.631 54.0485 136.457 54.0286C136.284 54.0086 136.108 54.033 135.946 54.0997C135.785 54.1664 135.643 54.273 135.534 54.4096V54.4096Z" fill="#FF8B7B"/>
<path d="M135.891 85.9107C135.891 85.9107 137.796 108.447 139.775 121.148C141.371 131.406 142.629 155.385 142.629 155.385H147.11C147.11 155.385 148.701 132.124 147.894 121.979C145.844 96.3026 150.418 94.2093 145.71 85.9146L135.891 85.9107Z" fill="#263238"/>
<path opacity="0.4" d="M139.615 93.4332C138.447 95.2046 137.609 97.1728 137.142 99.2426C137.534 103.045 137.969 107.251 138.455 111.297C139.701 107.925 141.066 101.097 139.615 93.4332Z" fill="black"/>
<path d="M132.371 85.9107C132.371 85.9107 128.671 111.195 127.369 121.128C126.017 131.457 122.065 154.613 122.065 154.613L126.452 155.287C126.452 155.287 133.935 133.288 135.327 123.143C136.844 112.088 142.563 85.9028 142.563 85.9028L132.371 85.9107Z" fill="#263238"/>
<path d="M121.418 154.632L127.039 155.589L127.678 153.468L121.661 152.437L121.418 154.632Z" fill="#3F51B5"/>
<path d="M142.018 155.475H147.721L148.019 153.476L141.986 153.272L142.018 155.475Z" fill="#3F51B5"/>
<path d="M145.906 85.1267L146.506 86.3223C146.553 86.4164 146.443 86.5105 146.291 86.5105H132.304C132.182 86.5105 132.084 86.4517 132.077 86.3733L131.955 85.1973C131.955 85.1149 132.053 85.0444 132.182 85.0444H145.687C145.727 85.0388 145.769 85.0435 145.807 85.0578C145.845 85.0722 145.879 85.0959 145.906 85.1267V85.1267Z" fill="#EBEBEB"/>
<path d="M144.091 86.632H144.452C144.526 86.632 144.581 86.5928 144.573 86.5497L144.405 84.9817C144.405 84.9346 144.338 84.8994 144.264 84.8994H143.903C143.832 84.8994 143.778 84.9346 143.781 84.9817L143.95 86.5497C143.958 86.6006 144.021 86.632 144.091 86.632Z" fill="#263238"/>
<path d="M135.326 86.632H135.687C135.757 86.632 135.812 86.5928 135.808 86.5497L135.64 84.9817C135.64 84.9346 135.569 84.8994 135.499 84.8994H135.138C135.063 84.8994 135.009 84.9346 135.016 84.9817L135.185 86.5497C135.189 86.6006 135.24 86.632 135.326 86.632Z" fill="#263238"/>
</svg>
