<svg width="20" height="20" viewBox="0 0 20 20" fill="none" xmlns="http://www.w3.org/2000/svg">
<path d="M14.7142 13.8807C13.9867 14.6083 12.5191 16.0758 11.4136 17.1813C10.6325 17.9624 9.36775 17.9623 8.5867 17.1813C7.50109 16.0957 6.06062 14.6552 5.28612 13.8807C2.68262 11.2772 2.68262 7.05612 5.28612 4.45262C7.88961 1.84913 12.1107 1.84913 14.7142 4.45262C17.3177 7.05612 17.3177 11.2772 14.7142 13.8807Z" stroke="#1746A2" stroke-width="2" stroke-linecap="round" stroke-linejoin="round"/>
<path d="M12.5002 9.16667C12.5002 10.5474 11.3809 11.6667 10.0002 11.6667C8.61945 11.6667 7.50016 10.5474 7.50016 9.16667C7.50016 7.78596 8.61945 6.66667 10.0002 6.66667C11.3809 6.66667 12.5002 7.78596 12.5002 9.16667Z" stroke="#1746A2" stroke-width="2" stroke-linecap="round" stroke-linejoin="round"/>
</svg>
