<svg width="263" height="314" viewBox="0 0 263 314" fill="none" xmlns="http://www.w3.org/2000/svg">
<path d="M101.872 257.24C96.6393 251.844 89.0563 248.749 81.0673 248.749L80.7591 248.75C75.497 248.752 70.3288 247.356 65.783 244.705L65.31 244.43L65.691 244.037C67.7536 241.903 69.4758 239.465 70.7974 236.807C69.8588 237.682 68.7393 238.34 67.5182 238.735C66.297 239.129 65.0041 239.251 63.7309 239.09C62.3867 238.93 61.0962 238.467 59.9563 237.737C58.8164 237.007 57.8566 236.028 57.1489 234.874C54.3567 230.344 51.0283 223.915 51.0283 219.018C51.0327 214.879 51.8994 210.786 53.5732 207C55.247 203.214 57.6912 199.819 60.75 197.03C62.6865 195.284 64.2333 193.149 65.2895 190.765C66.3456 188.381 66.8875 185.801 66.8798 183.194L66.8783 182.823C66.8778 179.39 67.2973 175.97 68.1274 172.639L68.2117 172.303L68.5578 172.315C70.7895 172.391 73.0224 172.203 75.2104 171.757C73.1581 171.506 71.1504 170.972 69.2442 170.17L68.8718 170.02L68.9982 169.638C77.708 164.246 97.3685 167.038 108.78 140.929C118.033 119.759 150.682 159.723 150.682 182.823C150.682 185.18 148.349 188.295 150.095 189.853C168.973 206.694 155.947 217.508 151.841 228.39C150.867 230.972 152.979 233.807 152.979 236.6C152.979 237.074 152.967 237.563 152.943 238.054L152.907 238.809L152.277 238.39C151.032 237.574 149.878 236.627 148.835 235.566C149.917 238.057 150.427 240.76 150.328 243.474C150.228 246.188 149.521 248.846 148.258 251.251C146.28 254.985 144.366 257.658 142.57 259.196C136.816 264.12 129.398 266.66 121.833 266.297C114.268 265.933 107.128 262.694 101.872 257.24H101.872Z" fill="#E6E6E6"/>
<path d="M133.477 313.414C133.605 313.414 133.73 313.367 133.827 313.283C133.924 313.198 133.987 313.082 134.005 312.955C134.028 312.795 136.253 296.748 134.255 275.42C132.409 255.724 126.483 227.355 108.729 204.055C108.687 203.999 108.634 203.952 108.573 203.917C108.512 203.881 108.445 203.858 108.376 203.849C108.306 203.839 108.235 203.844 108.167 203.862C108.099 203.88 108.036 203.911 107.98 203.953C107.924 203.996 107.877 204.049 107.841 204.11C107.806 204.171 107.783 204.238 107.774 204.307C107.764 204.377 107.769 204.448 107.787 204.516C107.805 204.584 107.836 204.647 107.879 204.703C125.479 227.802 131.358 255.963 133.19 275.52C135.177 296.723 132.969 312.645 132.947 312.804C132.936 312.88 132.942 312.957 132.963 313.03C132.985 313.104 133.022 313.172 133.073 313.23C133.123 313.288 133.185 313.334 133.255 313.366C133.324 313.397 133.4 313.414 133.477 313.414V313.414Z" fill="#3F3D56"/>
<path d="M118.989 236.92C119.102 236.92 119.212 236.884 119.303 236.818C119.394 236.752 119.463 236.658 119.497 236.551C119.532 236.443 119.532 236.328 119.498 236.22C119.463 236.113 119.395 236.019 119.303 235.953C114.245 232.529 108.78 229.747 103.035 227.671C94.0589 224.385 80.4099 221.406 66.3585 225.878C66.2915 225.899 66.2293 225.933 66.1754 225.979C66.1216 226.024 66.0773 226.079 66.0449 226.142C66.0125 226.204 65.9928 226.272 65.9868 226.342C65.9808 226.412 65.9887 226.483 66.01 226.55C66.0314 226.617 66.0657 226.679 66.1111 226.733C66.1564 226.787 66.212 226.831 66.2744 226.863C66.3369 226.895 66.4052 226.915 66.4752 226.921C66.5453 226.926 66.6158 226.918 66.6828 226.897C80.4463 222.517 93.8479 225.447 102.667 228.675C108.32 230.715 113.697 233.451 118.675 236.818C118.766 236.884 118.876 236.92 118.989 236.92V236.92Z" fill="#3F3D56"/>
<path d="M143.46 175.971C143.469 175.858 143.441 175.746 143.381 175.65C143.322 175.554 143.233 175.48 143.129 175.437C143.024 175.394 142.909 175.386 142.799 175.413C142.69 175.44 142.591 175.501 142.518 175.587C138.739 180.386 135.571 185.637 133.087 191.218C129.163 199.933 125.209 213.332 128.657 227.669C128.673 227.738 128.703 227.802 128.744 227.859C128.786 227.916 128.838 227.964 128.898 228.001C128.957 228.038 129.024 228.062 129.093 228.073C129.163 228.084 129.234 228.081 129.302 228.065C129.37 228.048 129.435 228.019 129.492 227.977C129.548 227.936 129.597 227.884 129.633 227.824C129.67 227.764 129.694 227.697 129.705 227.628C129.716 227.558 129.713 227.488 129.697 227.419C126.319 213.376 130.206 200.22 134.062 191.657C136.504 186.165 139.619 180.999 143.336 176.277C143.409 176.191 143.452 176.084 143.46 175.971V175.971Z" fill="#3F3D56"/>
<path d="M246.592 312.848H204.028L203.845 312.516C203.301 311.529 202.775 310.483 202.284 309.409C197.9 300.022 196.047 289.287 194.412 279.815L193.18 272.676C193.031 271.811 193.144 270.922 193.503 270.121C193.862 269.321 194.452 268.646 195.197 268.183C195.943 267.72 196.809 267.49 197.686 267.522C198.563 267.554 199.41 267.847 200.119 268.364C206.588 273.071 213.059 277.773 219.533 282.471C221.984 284.254 224.783 286.318 227.464 288.549C227.723 287.293 227.993 286.033 228.264 284.79C228.45 283.932 228.889 283.15 229.523 282.542C230.157 281.935 230.958 281.531 231.823 281.381C232.688 281.232 233.578 281.344 234.379 281.703C235.18 282.062 235.856 282.652 236.319 283.398L241.299 291.399C244.932 297.242 248.138 302.999 247.484 309.209C247.488 309.285 247.482 309.361 247.467 309.435C247.337 310.455 247.094 311.457 246.745 312.425L246.592 312.848Z" fill="#F0F0F0"/>
<path d="M226.762 145.512L218.547 115.107C218.195 113.82 217.352 112.723 216.198 112.052C215.044 111.382 213.673 111.192 212.381 111.523V111.523C211.712 111.695 211.085 112.001 210.539 112.422C209.992 112.844 209.537 113.372 209.202 113.976C208.866 114.579 208.657 115.244 208.586 115.931C208.516 116.617 208.587 117.311 208.793 117.97L218.294 149.291L223.265 168.566C222.541 169.119 222.005 169.882 221.73 170.75C221.454 171.618 221.452 172.55 221.725 173.419C221.997 174.288 222.531 175.053 223.253 175.608C223.974 176.164 224.85 176.483 225.76 176.524C226.67 176.565 227.57 176.324 228.339 175.835C229.107 175.346 229.707 174.632 230.056 173.791C230.404 172.949 230.486 172.021 230.289 171.132C230.091 170.242 229.625 169.435 228.953 168.82L226.762 145.512Z" fill="#F7B548"/>
<path d="M157.638 138.963L182.597 119.755C183.652 118.938 184.343 117.739 184.522 116.417C184.701 115.094 184.353 113.755 183.553 112.687V112.687C183.139 112.135 182.617 111.672 182.018 111.328C181.42 110.984 180.757 110.766 180.072 110.686C179.386 110.606 178.691 110.667 178.03 110.865C177.369 111.062 176.754 111.392 176.225 111.835L150.91 132.582L134.996 144.541C134.209 144.083 133.3 143.879 132.392 143.956C131.484 144.033 130.622 144.387 129.923 144.971C129.224 145.555 128.721 146.34 128.484 147.22C128.247 148.099 128.285 149.03 128.596 149.887C128.906 150.743 129.472 151.483 130.218 152.007C130.963 152.53 131.852 152.811 132.763 152.812C133.674 152.813 134.563 152.533 135.309 152.011C136.056 151.489 136.623 150.75 136.935 149.894L157.638 138.963Z" fill="#F7B548"/>
<path d="M177.981 143.379L176.88 167.95L211.424 160.442C208.484 150.569 206.485 148.885 208.694 142.014L177.981 143.379Z" fill="#F7B548"/>
<path d="M199.221 98.3333H187.711L182.768 106.792L180.412 106.662C179.26 106.598 178.107 106.77 177.024 107.167C175.941 107.564 174.95 108.178 174.112 108.971C173.274 109.764 172.607 110.72 172.15 111.779C171.694 112.839 171.459 113.981 171.459 115.134V115.134L174.361 119.632C174.361 119.632 169.171 128.677 176.647 133.127C176.647 133.127 175.314 141.511 176.647 141.421C177.981 141.331 181.052 139.625 177.981 141.331C174.909 143.037 175.138 143.267 175.536 143.664L175.933 144.061L208.229 149.484C208.229 149.484 209.173 143.223 209.275 142.107C209.377 140.99 208.694 143.72 209.377 140.99C210.059 138.26 211.083 139.284 210.059 138.26C209.036 137.236 216.693 124.552 213.547 119.632L218.591 114.713C218.591 109.993 211.011 106.167 206.292 106.167H205.687L199.221 98.3333Z" fill="#E6E6E6"/>
<path d="M171.489 303.375H166.83L164.613 285.405L171.489 285.406L171.489 303.375Z" fill="#A0616A"/>
<path d="M157.427 310.249C157.429 310.771 157.637 311.271 158.006 311.64C158.375 312.009 158.874 312.219 159.396 312.222H168.166L168.438 311.659L169.678 309.099L170.159 311.659L170.265 312.222H173.573L173.526 311.655L172.644 301.077L171.49 301.006L166.504 300.711L165.28 300.636V303.795C164.35 304.783 157.057 308.52 157.427 310.249Z" fill="#2F2E41"/>
<path d="M240.725 291.172L236.807 293.693L225.221 279.779L231.004 276.06L240.725 291.172Z" fill="#A0616A"/>
<path d="M232.619 304.561C232.903 304.999 233.349 305.306 233.859 305.418C234.369 305.529 234.902 305.434 235.342 305.155L242.718 300.41L242.642 299.789L242.3 296.966L244.089 298.858L244.483 299.274L247.265 297.485L246.919 297.033L240.454 288.615L239.445 289.18L235.093 291.629L234.022 292.228L235.731 294.884C235.484 296.218 231.372 303.307 232.619 304.561Z" fill="#2F2E41"/>
<path d="M262.458 313.176L118.201 313.317C118.057 313.316 117.919 313.258 117.818 313.156C117.716 313.054 117.659 312.916 117.659 312.772C117.659 312.628 117.716 312.49 117.818 312.388C117.919 312.286 118.057 312.228 118.201 312.227L262.458 312.087C262.602 312.088 262.74 312.145 262.841 312.247C262.943 312.349 263 312.488 263 312.632C263 312.776 262.943 312.914 262.841 313.016C262.74 313.118 262.602 313.176 262.458 313.176V313.176Z" fill="#CACACA"/>
<path d="M210.883 157.666C210.883 157.666 188.802 169.346 177.123 161.377C177.123 161.377 174.568 173.751 173.544 174.775C172.52 175.799 170.889 176.245 172.046 177.387C173.203 178.529 173.847 180.071 171.648 182.03C169.449 183.989 167.256 183.368 169.376 185.385C171.496 187.402 162.965 236.885 162.965 236.885C162.965 236.885 164.33 282.902 162.965 284.294C161.6 285.686 159.775 285.997 161.541 287.719C163.306 289.44 163.306 288.105 163.306 290.479V292.852L164.114 295.212H175.194C175.194 295.212 177.868 292.105 175.194 289.407C172.52 286.71 176.008 285.971 176.824 283.44C177.639 280.908 179.004 283.638 177.639 280.908C176.274 278.178 175.618 278.697 175.605 276.902C175.592 275.107 195.726 204.806 195.726 204.806L198.165 243.717L227.498 286.33L236.132 279.854C236.132 279.854 229.846 271.005 231.316 269.788C232.786 268.572 226.983 267.046 228.813 265.674C230.643 264.301 226.238 262.918 227.898 261.099C229.558 259.28 225.611 254.695 223.324 254.695C221.037 254.695 217.827 247.052 217.827 247.052L222.619 186.674L210.883 157.666Z" fill="#2F2E41"/>
<path d="M187.479 73.4968C187.323 73.7019 186.078 73.5914 184.581 73.3728C181.621 72.9406 181.217 73.4542 179.004 75.4671C175.799 78.383 177.621 96.1676 176.046 100.021L175.537 100.396C176.547 100.203 177.538 99.9258 178.501 99.5667C179.045 97.8506 179.59 96.1289 180.139 94.4143C180.657 95.7484 180.983 97.1495 181.107 98.5754C181.869 98.275 182.626 97.5404 185.81 96.5552C187.414 95.4675 199.013 94.3739 200.504 93.8954C204.288 81.0191 198.19 75.8119 187.479 73.4968Z" fill="#2F2E41"/>
<path d="M191.395 93.3525C197.517 93.3525 202.48 88.3899 202.48 82.2682C202.48 76.1465 197.517 71.1838 191.395 71.1838C185.274 71.1838 180.311 76.1465 180.311 82.2682C180.311 88.3899 185.274 93.3525 191.395 93.3525Z" fill="#F7B548"/>
<path d="M198.374 72.5201C197.749 72.4279 197.148 72.2171 196.603 71.899C196.332 71.7357 196.113 71.4997 195.971 71.2178C195.828 70.936 195.767 70.6197 195.796 70.3051C195.933 69.5175 196.823 69.0473 197.621 69.0952C198.415 69.2097 199.17 69.5151 199.82 69.9853C199.749 69.2242 199.424 68.5092 198.897 67.9551C198.37 67.401 197.673 67.0401 196.916 66.9301C197.966 66.8736 199.057 66.8237 200.027 67.2273C200.997 67.6309 201.806 68.6303 201.631 69.6666C203.262 69.4564 204.871 70.5931 205.545 72.0938C206.218 73.5944 206.085 75.3567 205.547 76.9111C205.494 77.1491 205.39 77.373 205.243 77.5675C205.096 77.762 204.908 77.9225 204.694 78.0383C204.145 78.2467 203.554 77.8973 203.078 77.5529C200.593 75.7536 198.331 73.6647 196.34 71.3303" fill="#2F2E41"/>
<path d="M203.207 94.0523C202.737 94.2736 202.982 95.0966 202.617 95.4652C202.458 95.6213 202.267 95.7402 202.057 95.8133C202.002 95.1264 201.842 94.4519 201.583 93.8135C201.535 93.6975 201.457 93.5678 201.334 93.578C201.19 93.5951 201.153 93.7828 201.149 93.9227C201.121 94.6168 200.967 95.3 200.696 95.9396C200.692 95.9464 200.689 95.9566 200.685 95.9635C200.58 95.96 200.47 95.9566 200.368 95.9532C199.576 95.9225 197.822 93.8886 197.433 94.5779C198.805 92.1447 200.477 88.4863 200.733 85.7051C200.822 85.1228 200.779 84.528 200.607 83.9646C200.517 83.6843 200.349 83.4357 200.122 83.2481C199.895 83.0606 199.619 82.9421 199.327 82.9067C199.183 82.9001 199.039 82.9255 198.906 82.981C198.773 83.0365 198.654 83.1207 198.557 83.2276C198.46 83.3346 198.388 83.4616 198.346 83.5996C198.304 83.7377 198.293 83.8833 198.314 84.0261L198.116 83.9988C196.28 82.504 197.863 79.907 195.727 78.8798C195.003 78.5317 190.574 79.6954 189.792 79.4906C189.775 78.6674 189.608 77.8542 189.297 77.0916C189.25 76.9755 189.171 76.8459 189.048 76.8561C188.905 76.8732 188.867 77.0608 188.864 77.2008C188.835 77.8949 188.681 78.5781 188.41 79.2176C187.327 79.0641 186.225 79.122 185.165 79.3883C184.23 79.634 183.342 80.0572 182.404 80.2824C181.94 80.4245 181.452 80.4706 180.97 80.4178C180.487 80.365 180.021 80.2144 179.599 79.9752C178.408 79.1767 178.199 77.4089 178.793 76.1053C179.223 75.2688 179.804 74.519 180.506 73.8939C181.042 73.3752 181.598 72.8769 182.155 72.3787C182.653 71.9316 183.151 71.4846 183.649 71.0375C184.277 70.4472 184.945 69.9021 185.649 69.4063C186.774 68.6692 188.037 68.1697 189.362 67.9385C190.686 67.7073 192.044 67.7492 193.352 68.0617C194.921 68.4371 197.02 67.9081 198.457 68.6418C199.208 69.0275 200.87 70.5052 201.528 71.0307C203.214 72.3719 202.073 71.279 203.917 72.0545C208.314 73.9035 206.37 92.5636 203.207 94.0523Z" fill="#2F2E41"/>
<path d="M80.4784 174.956C118.443 174.956 149.219 144.179 149.219 106.215C149.219 68.2507 118.443 37.4745 80.4784 37.4745C42.514 37.4745 11.7378 68.2507 11.7378 106.215C11.7378 144.179 42.514 174.956 80.4784 174.956Z" fill="white"/>
<path d="M80.4785 175.642C42.1965 175.642 11.0518 144.497 11.0518 106.215C11.0518 67.9331 42.1965 36.7884 80.4785 36.7884C118.76 36.7884 149.905 67.9331 149.905 106.215C149.905 144.497 118.76 175.642 80.4785 175.642ZM80.4785 38.1607C42.9532 38.1607 12.4241 68.6899 12.4241 106.215C12.4241 143.74 42.9532 174.269 80.4785 174.269C118.004 174.269 148.533 143.74 148.533 106.215C148.533 68.6899 118.004 38.1607 80.4785 38.1607Z" fill="#3F51B5"/>
<path d="M71.1008 141.991C69.9137 141.991 68.743 141.715 67.6813 141.184C66.6197 140.653 65.6962 139.882 64.9842 138.932L46.2308 113.927C45.6283 113.124 45.19 112.21 44.9408 111.237C44.6917 110.264 44.6365 109.252 44.7785 108.258C44.9206 107.264 45.257 106.308 45.7686 105.444C46.2803 104.58 46.9571 103.825 47.7604 103.222C48.5637 102.62 49.4778 102.182 50.4505 101.933C51.4232 101.683 52.4355 101.628 53.4295 101.77C54.4236 101.912 55.3799 102.249 56.2439 102.76C57.1079 103.272 57.8626 103.949 58.4651 104.752L70.7343 121.11L102.246 73.8427C103.372 72.1566 105.121 70.9865 107.108 70.5896C109.096 70.1926 111.161 70.6013 112.847 71.7258C114.534 72.8503 115.705 74.5985 116.103 76.5862C116.502 78.5739 116.094 80.6384 114.971 82.3258L77.4637 138.586C76.7853 139.604 75.8727 140.444 74.8026 141.036C73.7325 141.628 72.5361 141.955 71.3136 141.989C71.2427 141.99 71.1717 141.991 71.1008 141.991Z" fill="#3F51B5"/>
<path d="M151.301 41.7695C151.493 40.4552 150.116 39.167 148.227 38.8922C146.338 38.6173 144.651 39.4598 144.46 40.7741C144.269 42.0883 145.645 43.3765 147.534 43.6514C149.424 43.9263 151.11 43.0837 151.301 41.7695Z" fill="#E6E6E6"/>
<path d="M173.794 39.5748C173.985 38.2606 172.609 36.9724 170.72 36.6975C168.83 36.4226 167.144 37.2652 166.953 38.5794C166.761 39.8936 168.138 41.1818 170.027 41.4567C171.916 41.7316 173.603 40.889 173.794 39.5748Z" fill="#3F3D56"/>
<path d="M145.142 23.5599C145.333 22.2456 143.956 20.9574 142.067 20.6826C140.178 20.4077 138.492 21.2502 138.3 22.5645C138.109 23.8787 139.486 25.1669 141.375 25.4418C143.264 25.7167 144.951 24.8741 145.142 23.5599Z" fill="#FF6584"/>
<path d="M135.368 16.1005C135.378 14.894 134.705 13.9108 133.865 13.9044C133.026 13.8981 132.338 14.871 132.329 16.0775C132.32 17.284 132.993 18.2672 133.832 18.2736C134.672 18.2799 135.359 17.307 135.368 16.1005Z" fill="#E6E6E6"/>
<path d="M132.053 2.2076C132.063 1.00109 131.39 0.0178704 130.55 0.0115237C129.711 0.00517704 129.023 0.978106 129.014 2.18462C129.005 3.39113 129.678 4.37435 130.517 4.38069C131.357 4.38704 132.044 3.41411 132.053 2.2076Z" fill="#3F3D56"/>
<path d="M157.828 26.6587C157.838 25.4521 157.165 24.4689 156.325 24.4626C155.486 24.4562 154.798 25.4292 154.789 26.6357C154.78 27.8422 155.453 28.8254 156.292 28.8317C157.131 28.8381 157.819 27.8652 157.828 26.6587Z" fill="#E6E6E6"/>
<path d="M146.959 32.0854C146.968 30.8789 146.295 29.8957 145.456 29.8894C144.616 29.883 143.928 30.8559 143.919 32.0625C143.91 33.269 144.583 34.2522 145.423 34.2585C146.262 34.2648 146.95 33.2919 146.959 32.0854Z" fill="#FF6584"/>
<path d="M162.09 42.1161C162.099 40.9096 161.426 39.9263 160.586 39.92C159.747 39.9137 159.059 40.8866 159.05 42.0931C159.041 43.2996 159.714 44.2828 160.553 44.2891C161.393 44.2955 162.08 43.3226 162.09 42.1161Z" fill="#3F3D56"/>
<path d="M22.3034 204.618C22.4946 203.304 21.1181 202.015 19.2289 201.741C17.3397 201.466 15.6532 202.308 15.4619 203.622C15.2707 204.937 16.6472 206.225 18.5364 206.5C20.4256 206.775 22.1121 205.932 22.3034 204.618Z" fill="#E6E6E6"/>
<path d="M44.7965 202.423C44.9877 201.109 43.6112 199.821 41.722 199.546C39.8328 199.271 38.1463 200.114 37.9551 201.428C37.7639 202.742 39.1404 204.03 41.0296 204.305C42.9188 204.58 44.6053 203.737 44.7965 202.423Z" fill="#3F3D56"/>
<path d="M16.1442 186.408C16.3354 185.094 14.9589 183.806 13.0697 183.531C11.1805 183.256 9.49398 184.099 9.30277 185.413C9.11155 186.727 10.488 188.015 12.3772 188.29C14.2664 188.565 15.9529 187.722 16.1442 186.408Z" fill="#FF6584"/>
<path d="M6.3704 178.949C6.37952 177.742 5.70652 176.759 4.86721 176.753C4.0279 176.747 3.3401 177.72 3.33097 178.926C3.32185 180.133 3.99486 181.116 4.83417 181.122C5.67348 181.128 6.36127 180.156 6.3704 178.949Z" fill="#E6E6E6"/>
<path d="M3.05593 165.056C3.06505 163.849 2.39206 162.866 1.55274 162.86C0.713433 162.854 0.0256427 163.826 0.0165194 165.033C0.00739598 166.239 0.680394 167.223 1.51971 167.229C2.35902 167.235 3.04681 166.262 3.05593 165.056Z" fill="#3F3D56"/>
<path d="M28.8303 189.507C28.8395 188.301 28.1665 187.317 27.3271 187.311C26.4878 187.305 25.8001 188.278 25.7909 189.484C25.7818 190.691 26.4548 191.674 27.2941 191.68C28.1334 191.687 28.8212 190.714 28.8303 189.507Z" fill="#E6E6E6"/>
<path d="M17.9607 194.934C17.9699 193.727 17.2969 192.744 16.4575 192.738C15.6182 192.731 14.9304 193.704 14.9213 194.911C14.9122 196.117 15.5852 197.101 16.4245 197.107C17.2638 197.113 17.9516 196.14 17.9607 194.934Z" fill="#FF6584"/>
<path d="M33.0916 204.964C33.1007 203.758 32.4277 202.775 31.5884 202.768C30.7491 202.762 30.0613 203.735 30.0522 204.941C30.043 206.148 30.716 207.131 31.5553 207.137C32.3946 207.144 33.0825 206.171 33.0916 204.964Z" fill="#3F3D56"/>
</svg>
