<svg width="21" height="20" viewBox="0 0 21 20" fill="none" xmlns="http://www.w3.org/2000/svg">
<path d="M11.3333 13.3334V5.00002C11.3333 4.53978 10.9602 4.16669 10.5 4.16669H3.83333C3.3731 4.16669 3 4.53978 3 5.00002V13.3334C3 13.7936 3.3731 14.1667 3.83333 14.1667H4.66667M11.3333 13.3334C11.3333 13.7936 10.9602 14.1667 10.5 14.1667H8M11.3333 13.3334L11.3333 6.66669C11.3333 6.20645 11.7064 5.83335 12.1667 5.83335H14.3215C14.5425 5.83335 14.7545 5.92115 14.9107 6.07743L17.7559 8.92261C17.9122 9.07889 18 9.29085 18 9.51186V13.3334C18 13.7936 17.6269 14.1667 17.1667 14.1667H16.3333M11.3333 13.3334C11.3333 13.7936 11.7064 14.1667 12.1667 14.1667H13M4.66667 14.1667C4.66667 15.0872 5.41286 15.8334 6.33333 15.8334C7.25381 15.8334 8 15.0872 8 14.1667M4.66667 14.1667C4.66667 13.2462 5.41286 12.5 6.33333 12.5C7.25381 12.5 8 13.2462 8 14.1667M13 14.1667C13 15.0872 13.7462 15.8334 14.6667 15.8334C15.5871 15.8334 16.3333 15.0872 16.3333 14.1667M13 14.1667C13 13.2462 13.7462 12.5 14.6667 12.5C15.5871 12.5 16.3333 13.2462 16.3333 14.1667" stroke="#364152" stroke-width="1.5"/>
</svg>
