<svg width="43" height="42" viewBox="0 0 43 42" fill="none" xmlns="http://www.w3.org/2000/svg">
<path d="M5.58325 5.25H9.08325L9.78325 8.75M12.5833 22.75H30.0833L37.0833 8.75H9.78325M12.5833 22.75L9.78325 8.75M12.5833 22.75L8.57069 26.7626C7.46825 27.865 8.24904 29.75 9.80813 29.75H30.0833M30.0833 29.75C28.1503 29.75 26.5833 31.317 26.5833 33.25C26.5833 35.183 28.1503 36.75 30.0833 36.75C32.0162 36.75 33.5833 35.183 33.5833 33.25C33.5833 31.317 32.0162 29.75 30.0833 29.75ZM16.0833 33.25C16.0833 35.183 14.5162 36.75 12.5833 36.75C10.6503 36.75 9.08325 35.183 9.08325 33.25C9.08325 31.317 10.6503 29.75 12.5833 29.75C14.5162 29.75 16.0833 31.317 16.0833 33.25Z" stroke="#354497" stroke-width="2" stroke-linecap="round" stroke-linejoin="round"/>
</svg>
