<svg width="43" height="42" viewBox="0 0 43 42" fill="none" xmlns="http://www.w3.org/2000/svg">
<path d="M25.4588 16.4054C25.8208 16.8225 26.4524 16.8673 26.8695 16.5053C27.2867 16.1433 27.3314 15.5118 26.9694 15.0946L25.4588 16.4054ZM17.8742 25.5946C17.5122 25.1775 16.8807 25.1327 16.4635 25.4947C16.0464 25.8567 16.0016 26.4882 16.3636 26.9054L17.8742 25.5946ZM22.6665 12.25C22.6665 11.6977 22.2188 11.25 21.6665 11.25C21.1142 11.25 20.6665 11.6977 20.6665 12.25H22.6665ZM20.6665 29.75C20.6665 30.3023 21.1142 30.75 21.6665 30.75C22.2188 30.75 22.6665 30.3023 22.6665 29.75L20.6665 29.75ZM36.4165 21C36.4165 29.1462 29.8127 35.75 21.6665 35.75V37.75C30.9173 37.75 38.4165 30.2508 38.4165 21H36.4165ZM21.6665 35.75C13.5203 35.75 6.9165 29.1462 6.9165 21H4.9165C4.9165 30.2508 12.4157 37.75 21.6665 37.75V35.75ZM6.9165 21C6.9165 12.8538 13.5203 6.25 21.6665 6.25V4.25C12.4157 4.25 4.9165 11.7492 4.9165 21H6.9165ZM21.6665 6.25C29.8127 6.25 36.4165 12.8538 36.4165 21H38.4165C38.4165 11.7492 30.9173 4.25 21.6665 4.25V6.25ZM21.6665 20C20.3866 20 19.2732 19.6523 18.5089 19.1428C17.7376 18.6286 17.4165 18.0281 17.4165 17.5H15.4165C15.4165 18.9049 16.2706 20.0544 17.3995 20.8069C18.5353 21.5641 20.0469 22 21.6665 22V20ZM17.4165 17.5C17.4165 16.9719 17.7376 16.3714 18.5089 15.8572C19.2732 15.3477 20.3866 15 21.6665 15V13C20.0469 13 18.5353 13.4359 17.3995 14.1931C16.2706 14.9456 15.4165 16.0951 15.4165 17.5H17.4165ZM21.6665 15C23.4031 15 24.7895 15.634 25.4588 16.4054L26.9694 15.0946C25.8233 13.7737 23.8164 13 21.6665 13V15ZM21.6665 22C22.9464 22 24.0598 22.3477 24.8241 22.8572C25.5954 23.3714 25.9165 23.9719 25.9165 24.5H27.9165C27.9165 23.0951 27.0624 21.9456 25.9335 21.1931C24.7977 20.4359 23.2861 20 21.6665 20V22ZM20.6665 12.25V14H22.6665V12.25H20.6665ZM20.6665 28L20.6665 29.75L22.6665 29.75L22.6665 28L20.6665 28ZM21.6665 27C19.93 27 18.5436 26.366 17.8742 25.5946L16.3636 26.9054C17.5097 28.2263 19.5167 29 21.6665 29L21.6665 27ZM25.9165 24.5C25.9165 25.0281 25.5954 25.6286 24.8242 26.1428C24.0599 26.6523 22.9464 27 21.6665 27V29C23.2862 29 24.7977 28.5641 25.9336 27.8069C27.0624 27.0544 27.9165 25.9049 27.9165 24.5H25.9165ZM20.6665 14L20.6665 28L22.6665 28L22.6665 14L20.6665 14Z" fill="#354497"/>
</svg>
