<svg width="42" height="42" viewBox="0 0 42 42" fill="none" xmlns="http://www.w3.org/2000/svg">
<path d="M15.75 8.75H12.25C10.317 8.75 8.75 10.317 8.75 12.25V33.25C8.75 35.183 10.317 36.75 12.25 36.75H29.75C31.683 36.75 33.25 35.183 33.25 33.25V12.25C33.25 10.317 31.683 8.75 29.75 8.75H26.25M15.75 8.75C15.75 10.683 17.317 12.25 19.25 12.25H22.75C24.683 12.25 26.25 10.683 26.25 8.75M15.75 8.75C15.75 6.817 17.317 5.25 19.25 5.25H22.75C24.683 5.25 26.25 6.817 26.25 8.75M21 21H26.25M21 28H26.25M15.75 21H15.7675M15.75 28H15.7675" stroke="#354497" stroke-width="2" stroke-linecap="round"/>
</svg>
