<svg width="43" height="42" viewBox="0 0 43 42" fill="none" xmlns="http://www.w3.org/2000/svg">
<path d="M17.833 10.5H9.08301C7.15001 10.5 5.58301 12.067 5.58301 14V29.75C5.58301 31.683 7.15001 33.25 9.08301 33.25H33.583C35.516 33.25 37.083 31.683 37.083 29.75V14C37.083 12.067 35.516 10.5 33.583 10.5H24.833M17.833 10.5V8.75C17.833 6.817 19.4 5.25 21.333 5.25C23.266 5.25 24.833 6.817 24.833 8.75V10.5M17.833 10.5C17.833 12.433 19.4 14 21.333 14C23.266 14 24.833 12.433 24.833 10.5M16.083 24.5C18.016 24.5 19.583 22.933 19.583 21C19.583 19.067 18.016 17.5 16.083 17.5C14.15 17.5 12.583 19.067 12.583 21C12.583 22.933 14.15 24.5 16.083 24.5ZM16.083 24.5C18.3689 24.5 20.3135 25.9609 21.0342 28M16.083 24.5C13.7971 24.5 11.8524 25.9609 11.1317 28M26.583 19.25H31.833M26.583 26.25H30.083" stroke="#354497" stroke-width="2" stroke-linecap="round" stroke-linejoin="round"/>
</svg>
