<svg width="43" height="42" viewBox="0 0 43 42" fill="none" xmlns="http://www.w3.org/2000/svg">
<path d="M23.4165 28V10.5C23.4165 9.5335 22.633 8.75 21.6665 8.75H7.6665C6.70001 8.75 5.9165 9.5335 5.9165 10.5V28C5.9165 28.9665 6.70001 29.75 7.6665 29.75H9.4165M23.4165 28C23.4165 28.9665 22.633 29.75 21.6665 29.75H16.4165M23.4165 28L23.4165 14C23.4165 13.0335 24.2 12.25 25.1665 12.25H29.6916C30.1558 12.25 30.6009 12.4344 30.9291 12.7626L36.9039 18.7374C37.2321 19.0656 37.4165 19.5107 37.4165 19.9749V28C37.4165 28.9665 36.633 29.75 35.6665 29.75H33.9165M23.4165 28C23.4165 28.9665 24.2 29.75 25.1665 29.75H26.9165M9.4165 29.75C9.4165 31.683 10.9835 33.25 12.9165 33.25C14.8495 33.25 16.4165 31.683 16.4165 29.75M9.4165 29.75C9.4165 27.817 10.9835 26.25 12.9165 26.25C14.8495 26.25 16.4165 27.817 16.4165 29.75M26.9165 29.75C26.9165 31.683 28.4835 33.25 30.4165 33.25C32.3495 33.25 33.9165 31.683 33.9165 29.75M26.9165 29.75C26.9165 27.817 28.4835 26.25 30.4165 26.25C32.3495 26.25 33.9165 27.817 33.9165 29.75" stroke="#354497" stroke-width="2"/>
</svg>
