<svg width="38" height="48" viewBox="0 0 38 48" fill="none" xmlns="http://www.w3.org/2000/svg">
<path d="M11.5 6.5H6.50002C3.73859 6.5 1.50002 8.73858 1.50002 11.5V41.5C1.50002 44.2614 3.73859 46.5 6.50001 46.5H31.5C34.2614 46.5 36.5 44.2614 36.5 41.5V11.5C36.5 8.73858 34.2614 6.5 31.5 6.5H26.5M11.5 6.5C11.5 9.26142 13.7386 11.5 16.5 11.5H21.5C24.2614 11.5 26.5 9.26142 26.5 6.5M11.5 6.5C11.5 3.73858 13.7386 1.5 16.5 1.5H21.5C24.2614 1.5 26.5 3.73858 26.5 6.5M19 24H26.5M19 34H26.5M11.5 24H11.525M11.5 34H11.525" stroke="#354497" stroke-width="2" stroke-linecap="round"/>
</svg>
