<svg width="48" height="46" viewBox="0 0 48 46" fill="none" xmlns="http://www.w3.org/2000/svg">
<path d="M1.16669 1.25H6.16669L7.16669 6.08333M11.1667 25.4167H36.1667L46.1667 6.08333H7.16669M11.1667 25.4167L7.16669 6.08333M11.1667 25.4167L5.43445 30.9578C3.85954 32.4802 4.97496 35.0833 7.20222 35.0833H36.1667M36.1667 35.0833C33.4053 35.0833 31.1667 37.2473 31.1667 39.9167C31.1667 42.586 33.4053 44.75 36.1667 44.75C38.9281 44.75 41.1667 42.586 41.1667 39.9167C41.1667 37.2473 38.9281 35.0833 36.1667 35.0833ZM16.1667 39.9167C16.1667 42.586 13.9281 44.75 11.1667 44.75C8.40526 44.75 6.16669 42.586 6.16669 39.9167C6.16669 37.2473 8.40526 35.0833 11.1667 35.0833C13.9281 35.0833 16.1667 37.2473 16.1667 39.9167Z" stroke="#3F51B5" stroke-width="2" stroke-linecap="round" stroke-linejoin="round"/>
</svg>
